<?xml version="1.0" encoding="UTF-8" standalone="no"?>
<!DOCTYPE svg PUBLIC "-//W3C//DTD SVG 1.1//EN"
 "http://www.w3.org/Graphics/SVG/1.1/DTD/svg11.dtd">
<!-- Generated by graphviz version 2.38.0 (20140413.2041)
 -->
<!-- Title: controllers_diagram Pages: 1 -->
<svg width="606pt" height="503pt"
 viewBox="0.00 0.00 605.50 503.00" xmlns="http://www.w3.org/2000/svg" xmlns:xlink="http://www.w3.org/1999/xlink">
<g id="graph0" class="graph" transform="scale(1 1) rotate(0) translate(259.5 259.5)">
<title>controllers_diagram</title>
<polygon fill="none" stroke="none" points="-259.5,243.5 -259.5,-259.5 346,-259.5 346,243.5 -259.5,243.5"/>
<!-- _diagram_info -->
<g id="node1" class="node"><title>_diagram_info</title>
<text text-anchor="start" x="88" y="-111.6" font-family="Times,serif" font-size="13.00">Controllers diagram</text>
<text text-anchor="start" x="88" y="-97.6" font-family="Times,serif" font-size="13.00">Date: Sep 01 2017 &#45; 19:57</text>
<text text-anchor="start" x="88" y="-83.6" font-family="Times,serif" font-size="13.00">Migration version: 20170901225430</text>
<text text-anchor="start" x="88" y="-69.6" font-family="Times,serif" font-size="13.00">Generated by RailRoady 1.5.3</text>
<text text-anchor="start" x="88" y="-55.6" font-family="Times,serif" font-size="13.00">http://railroady.prestonlee.com</text>
</g>
<!-- ApplicationController -->
<g id="node2" class="node"><title>ApplicationController</title>
<path fill="none" stroke="black" d="M-228,111C-228,111 -116,111 -116,111 -110,111 -104,105 -104,99 -104,99 -104,29 -104,29 -104,23 -110,17 -116,17 -116,17 -228,17 -228,17 -234,17 -240,23 -240,29 -240,29 -240,99 -240,99 -240,105 -234,111 -228,111"/>
<text text-anchor="middle" x="-172" y="32.2" font-family="Times,serif" font-size="14.00">ApplicationController</text>
<polyline fill="none" stroke="black" points="-240,40 -104,40 "/>
<polyline fill="none" stroke="black" points="-240,64 -104,64 "/>
<polyline fill="none" stroke="black" points="-240,88 -104,88 "/>
<text text-anchor="start" x="-232" y="103.2" font-family="Times,serif" font-size="14.00">_layout</text>
</g>
<!-- Users::PasswordsController -->
<g id="node3" class="node"><title>Users::PasswordsController</title>
<path fill="none" stroke="black" d="M91.5,207C91.5,207 234.5,207 234.5,207 240.5,207 246.5,201 246.5,195 246.5,195 246.5,125 246.5,125 246.5,119 240.5,113 234.5,113 234.5,113 91.5,113 91.5,113 85.5,113 79.5,119 79.5,125 79.5,125 79.5,195 79.5,195 79.5,201 85.5,207 91.5,207"/>
<text text-anchor="middle" x="163" y="128.2" font-family="Times,serif" font-size="14.00">Users::PasswordsController</text>
<polyline fill="none" stroke="black" points="79.5,136 246.5,136 "/>
<polyline fill="none" stroke="black" points="79.5,160 246.5,160 "/>
<polyline fill="none" stroke="black" points="79.5,184 246.5,184 "/>
<text text-anchor="start" x="87.5" y="199.2" font-family="Times,serif" font-size="14.00">_layout</text>
</g>
<!-- Users::ConfirmationsController -->
<g id="node4" class="node"><title>Users::ConfirmationsController</title>
<path fill="none" stroke="black" d="M-131.5,-145C-131.5,-145 33.5,-145 33.5,-145 39.5,-145 45.5,-151 45.5,-157 45.5,-157 45.5,-227 45.5,-227 45.5,-233 39.5,-239 33.5,-239 33.5,-239 -131.5,-239 -131.5,-239 -137.5,-239 -143.5,-233 -143.5,-227 -143.5,-227 -143.5,-157 -143.5,-157 -143.5,-151 -137.5,-145 -131.5,-145"/>
<text text-anchor="middle" x="-49" y="-223.8" font-family="Times,serif" font-size="14.00">Users::ConfirmationsController</text>
<polyline fill="none" stroke="black" points="-143.5,-216 45.5,-216 "/>
<polyline fill="none" stroke="black" points="-143.5,-192 45.5,-192 "/>
<polyline fill="none" stroke="black" points="-143.5,-168 45.5,-168 "/>
<text text-anchor="start" x="-135.5" y="-152.8" font-family="Times,serif" font-size="14.00">_layout</text>
</g>
<!-- Users::SessionsController -->
<g id="node5" class="node"><title>Users::SessionsController</title>
<path fill="none" stroke="black" d="M-227.5,239C-227.5,239 -94.5,239 -94.5,239 -88.5,239 -82.5,233 -82.5,227 -82.5,227 -82.5,157 -82.5,157 -82.5,151 -88.5,145 -94.5,145 -94.5,145 -227.5,145 -227.5,145 -233.5,145 -239.5,151 -239.5,157 -239.5,157 -239.5,227 -239.5,227 -239.5,233 -233.5,239 -227.5,239"/>
<text text-anchor="middle" x="-161" y="160.2" font-family="Times,serif" font-size="14.00">Users::SessionsController</text>
<polyline fill="none" stroke="black" points="-239.5,168 -82.5,168 "/>
<polyline fill="none" stroke="black" points="-239.5,192 -82.5,192 "/>
<polyline fill="none" stroke="black" points="-239.5,216 -82.5,216 "/>
<text text-anchor="start" x="-231.5" y="231.2" font-family="Times,serif" font-size="14.00">_layout</text>
</g>
<!-- Users::OmniauthCallbacksController -->
<g id="node6" class="node"><title>Users::OmniauthCallbacksController</title>
<path fill="none" stroke="black" d="M92,79C92,79 286,79 286,79 292,79 298,73 298,67 298,67 298,-3 298,-3 298,-9 292,-15 286,-15 286,-15 92,-15 92,-15 86,-15 80,-9 80,-3 80,-3 80,67 80,67 80,73 86,79 92,79"/>
<text text-anchor="middle" x="189" y="0.2" font-family="Times,serif" font-size="14.00">Users::OmniauthCallbacksController</text>
<polyline fill="none" stroke="black" points="80,8 298,8 "/>
<polyline fill="none" stroke="black" points="80,32 298,32 "/>
<polyline fill="none" stroke="black" points="80,56 298,56 "/>
<text text-anchor="start" x="88" y="71.2" font-family="Times,serif" font-size="14.00">_layout</text>
</g>
<!-- Users::RegistrationsController -->
<g id="node7" class="node"><title>Users::RegistrationsController</title>
<path fill="none" stroke="black" d="M172,-161C172,-161 330,-161 330,-161 336,-161 342,-167 342,-173 342,-173 342,-243 342,-243 342,-249 336,-255 330,-255 330,-255 172,-255 172,-255 166,-255 160,-249 160,-243 160,-243 160,-173 160,-173 160,-167 166,-161 172,-161"/>
<text text-anchor="middle" x="251" y="-239.8" font-family="Times,serif" font-size="14.00">Users::RegistrationsController</text>
<polyline fill="none" stroke="black" points="160,-232 342,-232 "/>
<polyline fill="none" stroke="black" points="160,-208 342,-208 "/>
<polyline fill="none" stroke="black" points="160,-184 342,-184 "/>
<text text-anchor="start" x="168" y="-168.8" font-family="Times,serif" font-size="14.00">_layout</text>
</g>
<!-- Users::UnlocksController -->
<g id="node8" class="node"><title>Users::UnlocksController</title>
<path fill="none" stroke="black" d="M-243.5,-17C-243.5,-17 -112.5,-17 -112.5,-17 -106.5,-17 -100.5,-23 -100.5,-29 -100.5,-29 -100.5,-99 -100.5,-99 -100.5,-105 -106.5,-111 -112.5,-111 -112.5,-111 -243.5,-111 -243.5,-111 -249.5,-111 -255.5,-105 -255.5,-99 -255.5,-99 -255.5,-29 -255.5,-29 -255.5,-23 -249.5,-17 -243.5,-17"/>
<text text-anchor="middle" x="-178" y="-95.8" font-family="Times,serif" font-size="14.00">Users::UnlocksController</text>
<polyline fill="none" stroke="black" points="-255.5,-88 -100.5,-88 "/>
<polyline fill="none" stroke="black" points="-255.5,-64 -100.5,-64 "/>
<polyline fill="none" stroke="black" points="-255.5,-40 -100.5,-40 "/>
<text text-anchor="start" x="-247.5" y="-24.8" font-family="Times,serif" font-size="14.00">_layout</text>
</g>
<!-- ProductsController -->
<g id="node9" class="node"><title>ProductsController</title>
<path fill="none" stroke="black" d="M-51.5,111.5C-51.5,111.5 43.5,111.5 43.5,111.5 49.5,111.5 55.5,105.5 55.5,99.5 55.5,99.5 55.5,-89.5 55.5,-89.5 55.5,-95.5 49.5,-101.5 43.5,-101.5 43.5,-101.5 -51.5,-101.5 -51.5,-101.5 -57.5,-101.5 -63.5,-95.5 -63.5,-89.5 -63.5,-89.5 -63.5,99.5 -63.5,99.5 -63.5,105.5 -57.5,111.5 -51.5,111.5"/>
<text text-anchor="middle" x="-4" y="-86.3" font-family="Times,serif" font-size="14.00">ProductsController</text>
<polyline fill="none" stroke="black" points="-63.5,-78.5 55.5,-78.5 "/>
<text text-anchor="start" x="-55.5" y="-63.3" font-family="Times,serif" font-size="14.00">create</text>
<text text-anchor="start" x="-55.5" y="-48.3" font-family="Times,serif" font-size="14.00">destroy</text>
<text text-anchor="start" x="-55.5" y="-33.3" font-family="Times,serif" font-size="14.00">edit</text>
<text text-anchor="start" x="-55.5" y="-18.3" font-family="Times,serif" font-size="14.00">index</text>
<text text-anchor="start" x="-55.5" y="-3.3" font-family="Times,serif" font-size="14.00">new</text>
<text text-anchor="start" x="-55.5" y="11.7" font-family="Times,serif" font-size="14.00">show</text>
<text text-anchor="start" x="-55.5" y="26.7" font-family="Times,serif" font-size="14.00">update</text>
<polyline fill="none" stroke="black" points="-63.5,34.5 55.5,34.5 "/>
<polyline fill="none" stroke="black" points="-63.5,58.5 55.5,58.5 "/>
<text text-anchor="start" x="-55.5" y="73.7" font-family="Times,serif" font-size="14.00">_layout</text>
<text text-anchor="start" x="-55.5" y="88.7" font-family="Times,serif" font-size="14.00">product_params</text>
<text text-anchor="start" x="-55.5" y="103.7" font-family="Times,serif" font-size="14.00">set_product</text>
</g>
</g>
</svg>
