<?xml version="1.0" encoding="UTF-8" standalone="no"?>
<!DOCTYPE svg PUBLIC "-//W3C//DTD SVG 1.1//EN"
 "http://www.w3.org/Graphics/SVG/1.1/DTD/svg11.dtd">
<!-- Generated by graphviz version 2.38.0 (20140413.2041)
 -->
<!-- Title: models_diagram Pages: 1 -->
<svg width="1045pt" height="596pt"
 viewBox="0.00 0.00 1045.00 596.00" xmlns="http://www.w3.org/2000/svg" xmlns:xlink="http://www.w3.org/1999/xlink">
<g id="graph0" class="graph" transform="scale(1 1) rotate(0) translate(4 592)">
<title>models_diagram</title>
<polygon fill="none" stroke="none" points="-4,4 -4,-592 1041,-592 1041,4 -4,4"/>
<!-- _diagram_info -->
<g id="node1" class="node"><title>_diagram_info</title>
<text text-anchor="start" x="8" y="-499.1" font-family="Times,serif" font-size="13.00">Models diagram</text>
<text text-anchor="start" x="8" y="-485.1" font-family="Times,serif" font-size="13.00">Date: Sep 01 2017 &#45; 19:57</text>
<text text-anchor="start" x="8" y="-471.1" font-family="Times,serif" font-size="13.00">Migration version: 20170901225430</text>
<text text-anchor="start" x="8" y="-457.1" font-family="Times,serif" font-size="13.00">Generated by RailRoady 1.5.3</text>
<text text-anchor="start" x="8" y="-443.1" font-family="Times,serif" font-size="13.00">http://railroady.prestonlee.com</text>
</g>
<!-- ApplicationRecord -->
<g id="node2" class="node"><title>ApplicationRecord</title>
<ellipse fill="none" stroke="black" cx="309" cy="-474.5" rx="77.1866" ry="18"/>
<text text-anchor="middle" x="309" y="-470.8" font-family="Times,serif" font-size="14.00">ApplicationRecord</text>
</g>
<!-- Product -->
<g id="node3" class="node"><title>Product</title>
<path fill="none" stroke="black" d="M805,-173.5C805,-173.5 1025,-173.5 1025,-173.5 1031,-173.5 1037,-179.5 1037,-185.5 1037,-185.5 1037,-312.5 1037,-312.5 1037,-318.5 1031,-324.5 1025,-324.5 1025,-324.5 805,-324.5 805,-324.5 799,-324.5 793,-318.5 793,-312.5 793,-312.5 793,-185.5 793,-185.5 793,-179.5 799,-173.5 805,-173.5"/>
<text text-anchor="middle" x="915" y="-309.3" font-family="Times,serif" font-size="14.00">Product</text>
<polyline fill="none" stroke="black" points="793,-301.5 1037,-301.5 "/>
<text text-anchor="start" x="801" y="-286.3" font-family="Times,serif" font-size="14.00">id :integer</text>
<text text-anchor="start" x="801" y="-271.3" font-family="Times,serif" font-size="14.00">name :character varying</text>
<text text-anchor="start" x="801" y="-256.3" font-family="Times,serif" font-size="14.00">stock :integer</text>
<text text-anchor="start" x="801" y="-241.3" font-family="Times,serif" font-size="14.00">photo :character varying</text>
<text text-anchor="start" x="801" y="-226.3" font-family="Times,serif" font-size="14.00">price :integer</text>
<text text-anchor="start" x="801" y="-211.3" font-family="Times,serif" font-size="14.00">category_id :integer</text>
<text text-anchor="start" x="801" y="-196.3" font-family="Times,serif" font-size="14.00">created_at :timestamp without time zone</text>
<text text-anchor="start" x="801" y="-181.3" font-family="Times,serif" font-size="14.00">updated_at :timestamp without time zone</text>
</g>
<!-- Order -->
<g id="node4" class="node"><title>Order</title>
<path fill="none" stroke="black" d="M543,-0.5C543,-0.5 763,-0.5 763,-0.5 769,-0.5 775,-6.5 775,-12.5 775,-12.5 775,-124.5 775,-124.5 775,-130.5 769,-136.5 763,-136.5 763,-136.5 543,-136.5 543,-136.5 537,-136.5 531,-130.5 531,-124.5 531,-124.5 531,-12.5 531,-12.5 531,-6.5 537,-0.5 543,-0.5"/>
<text text-anchor="middle" x="653" y="-121.3" font-family="Times,serif" font-size="14.00">Order</text>
<polyline fill="none" stroke="black" points="531,-113.5 775,-113.5 "/>
<text text-anchor="start" x="539" y="-98.3" font-family="Times,serif" font-size="14.00">id :integer</text>
<text text-anchor="start" x="539" y="-83.3" font-family="Times,serif" font-size="14.00">price :integer</text>
<text text-anchor="start" x="539" y="-68.3" font-family="Times,serif" font-size="14.00">product_id :integer</text>
<text text-anchor="start" x="539" y="-53.3" font-family="Times,serif" font-size="14.00">cart_id :integer</text>
<text text-anchor="start" x="539" y="-38.3" font-family="Times,serif" font-size="14.00">user_id :integer</text>
<text text-anchor="start" x="539" y="-23.3" font-family="Times,serif" font-size="14.00">created_at :timestamp without time zone</text>
<text text-anchor="start" x="539" y="-8.3" font-family="Times,serif" font-size="14.00">updated_at :timestamp without time zone</text>
</g>
<!-- Product&#45;&gt;Order -->
<g id="edge1" class="edge"><title>Product&#45;&gt;Order</title>
<path fill="none" stroke="#6581c0" d="M798.706,-168.769C785.841,-160.004 772.785,-151.109 760.042,-142.427"/>
<ellipse fill="none" stroke="#6581c0" cx="802.101" cy="-171.082" rx="4.00002" ry="4.00002"/>
<polygon fill="#6581c0" stroke="#6581c0" points="759.983,-142.387 754.252,-133.038 755.851,-139.572 751.718,-136.757 751.718,-136.757 751.718,-136.757 755.851,-139.572 749.185,-140.476 759.983,-142.387 759.983,-142.387"/>
</g>
<!-- Cart -->
<g id="node5" class="node"><title>Cart</title>
<path fill="none" stroke="black" d="M543,-188.5C543,-188.5 763,-188.5 763,-188.5 769,-188.5 775,-194.5 775,-200.5 775,-200.5 775,-297.5 775,-297.5 775,-303.5 769,-309.5 763,-309.5 763,-309.5 543,-309.5 543,-309.5 537,-309.5 531,-303.5 531,-297.5 531,-297.5 531,-200.5 531,-200.5 531,-194.5 537,-188.5 543,-188.5"/>
<text text-anchor="middle" x="653" y="-294.3" font-family="Times,serif" font-size="14.00">Cart</text>
<polyline fill="none" stroke="black" points="531,-286.5 775,-286.5 "/>
<text text-anchor="start" x="539" y="-271.3" font-family="Times,serif" font-size="14.00">id :integer</text>
<text text-anchor="start" x="539" y="-256.3" font-family="Times,serif" font-size="14.00">total_price :integer</text>
<text text-anchor="start" x="539" y="-241.3" font-family="Times,serif" font-size="14.00">open :boolean</text>
<text text-anchor="start" x="539" y="-226.3" font-family="Times,serif" font-size="14.00">created_at :timestamp without time zone</text>
<text text-anchor="start" x="539" y="-211.3" font-family="Times,serif" font-size="14.00">updated_at :timestamp without time zone</text>
<text text-anchor="start" x="539" y="-196.3" font-family="Times,serif" font-size="14.00">user_id :integer</text>
</g>
<!-- Cart&#45;&gt;Order -->
<g id="edge2" class="edge"><title>Cart&#45;&gt;Order</title>
<path fill="none" stroke="#2e3598" d="M653,-179.83C653,-168.993 653,-157.717 653,-146.69"/>
<ellipse fill="none" stroke="#2e3598" cx="653" cy="-184.066" rx="4" ry="4"/>
<polygon fill="#2e3598" stroke="#2e3598" points="653,-146.654 657.5,-136.654 653,-141.654 653,-136.654 653,-136.654 653,-136.654 653,-141.654 648.5,-136.654 653,-146.654 653,-146.654"/>
</g>
<!-- User -->
<g id="node6" class="node"><title>User</title>
<path fill="none" stroke="black" d="M416.5,-361.5C416.5,-361.5 705.5,-361.5 705.5,-361.5 711.5,-361.5 717.5,-367.5 717.5,-373.5 717.5,-373.5 717.5,-575.5 717.5,-575.5 717.5,-581.5 711.5,-587.5 705.5,-587.5 705.5,-587.5 416.5,-587.5 416.5,-587.5 410.5,-587.5 404.5,-581.5 404.5,-575.5 404.5,-575.5 404.5,-373.5 404.5,-373.5 404.5,-367.5 410.5,-361.5 416.5,-361.5"/>
<text text-anchor="middle" x="561" y="-572.3" font-family="Times,serif" font-size="14.00">User</text>
<polyline fill="none" stroke="black" points="404.5,-564.5 717.5,-564.5 "/>
<text text-anchor="start" x="412.5" y="-549.3" font-family="Times,serif" font-size="14.00">id :integer</text>
<text text-anchor="start" x="412.5" y="-534.3" font-family="Times,serif" font-size="14.00">email :character varying</text>
<text text-anchor="start" x="412.5" y="-519.3" font-family="Times,serif" font-size="14.00">encrypted_password :character varying</text>
<text text-anchor="start" x="412.5" y="-504.3" font-family="Times,serif" font-size="14.00">reset_password_token :character varying</text>
<text text-anchor="start" x="412.5" y="-489.3" font-family="Times,serif" font-size="14.00">reset_password_sent_at :timestamp without time zone</text>
<text text-anchor="start" x="412.5" y="-474.3" font-family="Times,serif" font-size="14.00">remember_created_at :timestamp without time zone</text>
<text text-anchor="start" x="412.5" y="-459.3" font-family="Times,serif" font-size="14.00">sign_in_count :integer</text>
<text text-anchor="start" x="412.5" y="-444.3" font-family="Times,serif" font-size="14.00">current_sign_in_at :timestamp without time zone</text>
<text text-anchor="start" x="412.5" y="-429.3" font-family="Times,serif" font-size="14.00">last_sign_in_at :timestamp without time zone</text>
<text text-anchor="start" x="412.5" y="-414.3" font-family="Times,serif" font-size="14.00">current_sign_in_ip :inet</text>
<text text-anchor="start" x="412.5" y="-399.3" font-family="Times,serif" font-size="14.00">last_sign_in_ip :inet</text>
<text text-anchor="start" x="412.5" y="-384.3" font-family="Times,serif" font-size="14.00">created_at :timestamp without time zone</text>
<text text-anchor="start" x="412.5" y="-369.3" font-family="Times,serif" font-size="14.00">updated_at :timestamp without time zone</text>
</g>
<!-- User&#45;&gt;Order -->
<g id="edge4" class="edge"><title>User&#45;&gt;Order</title>
<path fill="none" stroke="#580299" d="M515.348,-353.268C501.032,-296.195 495.114,-228.506 522,-173 526.984,-162.71 533.542,-153.134 541.071,-144.296"/>
<ellipse fill="none" stroke="#580299" cx="516.415" cy="-357.377" rx="4.00001" ry="4.00001"/>
<polygon fill="#580299" stroke="#580299" points="541.215,-144.137 551.26,-139.739 544.569,-140.429 547.923,-136.72 547.923,-136.72 547.923,-136.72 544.569,-140.429 544.585,-133.702 541.215,-144.137 541.215,-144.137"/>
</g>
<!-- User&#45;&gt;Cart -->
<g id="edge3" class="edge"><title>User&#45;&gt;Cart</title>
<path fill="none" stroke="#d58d87" d="M610.234,-353.893C615.111,-342.046 619.939,-330.318 624.497,-319.244"/>
<ellipse fill="none" stroke="#d58d87" cx="608.657" cy="-357.724" rx="4.00002" ry="4.00002"/>
<polygon fill="#d58d87" stroke="#d58d87" points="624.621,-318.942 632.589,-311.407 626.525,-314.318 628.428,-309.694 628.428,-309.694 628.428,-309.694 626.525,-314.318 624.267,-307.981 624.621,-318.942 624.621,-318.942"/>
</g>
<!-- Category -->
<g id="node7" class="node"><title>Category</title>
<path fill="none" stroke="black" d="M805,-429C805,-429 1025,-429 1025,-429 1031,-429 1037,-435 1037,-441 1037,-441 1037,-508 1037,-508 1037,-514 1031,-520 1025,-520 1025,-520 805,-520 805,-520 799,-520 793,-514 793,-508 793,-508 793,-441 793,-441 793,-435 799,-429 805,-429"/>
<text text-anchor="middle" x="915" y="-504.8" font-family="Times,serif" font-size="14.00">Category</text>
<polyline fill="none" stroke="black" points="793,-497 1037,-497 "/>
<text text-anchor="start" x="801" y="-481.8" font-family="Times,serif" font-size="14.00">id :integer</text>
<text text-anchor="start" x="801" y="-466.8" font-family="Times,serif" font-size="14.00">name :character varying</text>
<text text-anchor="start" x="801" y="-451.8" font-family="Times,serif" font-size="14.00">created_at :timestamp without time zone</text>
<text text-anchor="start" x="801" y="-436.8" font-family="Times,serif" font-size="14.00">updated_at :timestamp without time zone</text>
</g>
<!-- Category&#45;&gt;Product -->
<g id="edge5" class="edge"><title>Category&#45;&gt;Product</title>
<path fill="none" stroke="#4a5c12" d="M915,-420.541C915,-394.895 915,-363.474 915,-334.621"/>
<ellipse fill="none" stroke="#4a5c12" cx="915" cy="-424.809" rx="4" ry="4"/>
<polygon fill="#4a5c12" stroke="#4a5c12" points="915,-334.536 919.5,-324.536 915,-329.536 915,-324.536 915,-324.536 915,-324.536 915,-329.536 910.5,-324.536 915,-334.536 915,-334.536"/>
</g>
</g>
</svg>
