<?xml version="1.0" encoding="UTF-8" standalone="no"?>
<!DOCTYPE svg PUBLIC "-//W3C//DTD SVG 1.1//EN"
 "http://www.w3.org/Graphics/SVG/1.1/DTD/svg11.dtd">
<!-- Generated by graphviz version 2.38.0 (20140413.2041)
 -->
<!-- Title: models_diagram Pages: 1 -->
<svg width="596pt" height="230pt"
 viewBox="0.00 0.00 595.90 230.00" xmlns="http://www.w3.org/2000/svg" xmlns:xlink="http://www.w3.org/1999/xlink">
<g id="graph0" class="graph" transform="scale(1 1) rotate(0) translate(4 226)">
<title>models_diagram</title>
<polygon fill="none" stroke="none" points="-4,4 -4,-226 591.896,-226 591.896,4 -4,4"/>
<!-- _diagram_info -->
<g id="node1" class="node"><title>_diagram_info</title>
<text text-anchor="start" x="8" y="-207.6" font-family="Times,serif" font-size="13.00">Models diagram</text>
<text text-anchor="start" x="8" y="-193.6" font-family="Times,serif" font-size="13.00">Date: Sep 01 2017 &#45; 19:57</text>
<text text-anchor="start" x="8" y="-179.6" font-family="Times,serif" font-size="13.00">Migration version: 20170901225430</text>
<text text-anchor="start" x="8" y="-165.6" font-family="Times,serif" font-size="13.00">Generated by RailRoady 1.5.3</text>
<text text-anchor="start" x="8" y="-151.6" font-family="Times,serif" font-size="13.00">http://railroady.prestonlee.com</text>
</g>
<!-- ApplicationRecord -->
<g id="node2" class="node"><title>ApplicationRecord</title>
<ellipse fill="none" stroke="black" cx="309" cy="-183" rx="77.1866" ry="18"/>
<text text-anchor="middle" x="309" y="-179.3" font-family="Times,serif" font-size="14.00">ApplicationRecord</text>
</g>
<!-- Product -->
<g id="node3" class="node"><title>Product</title>
<ellipse fill="none" stroke="black" cx="545" cy="-90" rx="38.1938" ry="18"/>
<text text-anchor="middle" x="545" y="-86.3" font-family="Times,serif" font-size="14.00">Product</text>
</g>
<!-- Order -->
<g id="node4" class="node"><title>Order</title>
<ellipse fill="none" stroke="black" cx="462" cy="-18" rx="31.3957" ry="18"/>
<text text-anchor="middle" x="462" y="-14.3" font-family="Times,serif" font-size="14.00">Order</text>
</g>
<!-- Product&#45;&gt;Order -->
<g id="edge1" class="edge"><title>Product&#45;&gt;Order</title>
<path fill="none" stroke="#54f6a3" d="M520.658,-68.471C509.949,-59.4388 497.389,-48.846 486.645,-39.7846"/>
<ellipse fill="none" stroke="#54f6a3" cx="523.932" cy="-71.2322" rx="4.00002" ry="4.00002"/>
<polygon fill="#54f6a3" stroke="#54f6a3" points="486.488,-39.6521 481.744,-29.7651 482.665,-36.4286 478.843,-33.2051 478.843,-33.2051 478.843,-33.2051 482.665,-36.4286 475.942,-36.645 486.488,-39.6521 486.488,-39.6521"/>
</g>
<!-- Cart -->
<g id="node5" class="node"><title>Cart</title>
<ellipse fill="none" stroke="black" cx="462" cy="-90" rx="27" ry="18"/>
<text text-anchor="middle" x="462" y="-86.3" font-family="Times,serif" font-size="14.00">Cart</text>
</g>
<!-- Cart&#45;&gt;Order -->
<g id="edge2" class="edge"><title>Cart&#45;&gt;Order</title>
<path fill="none" stroke="#55898a" d="M462,-63.6398C462,-58.0629 462,-52.1319 462,-46.4761"/>
<ellipse fill="none" stroke="#55898a" cx="462" cy="-67.6966" rx="4" ry="4"/>
<polygon fill="#55898a" stroke="#55898a" points="462,-46.1043 466.5,-36.1043 462,-41.1043 462,-36.1043 462,-36.1043 462,-36.1043 462,-41.1043 457.5,-36.1044 462,-46.1043 462,-46.1043"/>
</g>
<!-- User -->
<g id="node6" class="node"><title>User</title>
<ellipse fill="none" stroke="black" cx="432" cy="-183" rx="27.0966" ry="18"/>
<text text-anchor="middle" x="432" y="-179.3" font-family="Times,serif" font-size="14.00">User</text>
</g>
<!-- User&#45;&gt;Order -->
<g id="edge4" class="edge"><title>User&#45;&gt;Order</title>
<path fill="none" stroke="#816d60" d="M425.804,-157.063C421.287,-134.368 417.327,-100.205 426,-72 429.237,-61.4743 435.354,-51.1634 441.64,-42.4752"/>
<ellipse fill="none" stroke="#816d60" cx="426.7" cy="-161.251" rx="4.00001" ry="4.00001"/>
<polygon fill="#816d60" stroke="#816d60" points="441.775,-42.2996 451.445,-37.1278 444.828,-38.3398 447.881,-34.3801 447.881,-34.3801 447.881,-34.3801 444.828,-38.3398 444.317,-31.6324 441.775,-42.2996 441.775,-42.2996"/>
</g>
<!-- User&#45;&gt;Cart -->
<g id="edge3" class="edge"><title>User&#45;&gt;Cart</title>
<path fill="none" stroke="#a4073c" d="M440.063,-157.543C444.148,-145.152 449.113,-130.09 453.286,-117.432"/>
<ellipse fill="none" stroke="#a4073c" cx="438.755" cy="-161.51" rx="4.00001" ry="4.00001"/>
<polygon fill="#a4073c" stroke="#a4073c" points="453.3,-117.39 460.705,-109.302 454.865,-112.642 456.431,-107.893 456.431,-107.893 456.431,-107.893 454.865,-112.642 452.157,-106.484 453.3,-117.39 453.3,-117.39"/>
</g>
<!-- Category -->
<g id="node7" class="node"><title>Category</title>
<ellipse fill="none" stroke="black" cx="545" cy="-183" rx="42.7926" ry="18"/>
<text text-anchor="middle" x="545" y="-179.3" font-family="Times,serif" font-size="14.00">Category</text>
</g>
<!-- Category&#45;&gt;Product -->
<g id="edge5" class="edge"><title>Category&#45;&gt;Product</title>
<path fill="none" stroke="#142ad5" d="M545,-156.729C545,-144.725 545,-130.362 545,-118.129"/>
<ellipse fill="none" stroke="#142ad5" cx="545" cy="-160.884" rx="4" ry="4"/>
<polygon fill="#142ad5" stroke="#142ad5" points="545,-118.04 549.5,-108.04 545,-113.04 545,-108.04 545,-108.04 545,-108.04 545,-113.04 540.5,-108.04 545,-118.04 545,-118.04"/>
</g>
</g>
</svg>
